<?xml version="1.0" encoding="UTF-8" standalone="no"?>
<svg
   version="1.0"
   width="500.00003pt"
   height="500.00003pt"
   viewBox="0 0 500.00003 500.00003"
   preserveAspectRatio="xMidYMid"
   id="svg1"
   xmlns="http://www.w3.org/2000/svg"
   xmlns:svg="http://www.w3.org/2000/svg">
  <defs
     id="defs1" />
  <g
     transform="matrix(0.1,0,0,-0.1,0,500)"
     fill="#000000"
     stroke="none"
     id="g1">
    <path
       d="M 2200,4845 C 1680,4781 1157,4519 798,4141 466,3792 260,3387 168,2900 143,2765 132,2391 149,2238 254,1322 878,549 1745,261 c 276,-91 460,-121 755,-121 295,0 479,30 755,121 760,252 1344,885 1540,1669 53,214 60,277 60,570 0,222 -4,294 -18,375 -74,406 -220,744 -458,1062 -99,131 -319,351 -449,447 -340,253 -737,413 -1140,462 -142,17 -449,16 -590,-1 z M 3620,3220 v -419 l -582,-3 -583,-3 -53,-30 c -88,-48 -141,-127 -149,-224 -14,-149 74,-254 235,-282 167,-30 295,58 309,210 8,84 -17,152 -78,213 -26,26 -55,48 -63,48 -8,0 -18,5 -21,10 -4,7 119,10 361,10 h 367 l 73,-74 c 57,-58 82,-94 118,-168 61,-127 80,-225 73,-382 -6,-141 -23,-213 -75,-316 -66,-133 -191,-238 -359,-301 -201,-75 -383,-89 -1195,-89 h -608 v 420 420 h 225 c 124,0 225,4 225,8 0,5 -6,16 -12,25 -11,14 -35,17 -133,19 l -119,3 -48,59 c -57,71 -100,171 -123,285 -22,106 -16,353 10,446 42,148 132,278 247,357 146,98 297,141 608,171 19,2 331,5 693,5 l 657,2 z"
       id="path1" />
  </g>
  <path
     style="fill:#ffffff;stroke-width:1.4771"
     d="m 140.32496,316.10044 v -41.35893 h 22.26488 c 20.40653,0 22.224,-0.21576 21.77502,-2.58494 -0.40119,-2.11696 -2.91507,-2.818 -13.88599,-3.87233 l -13.39611,-1.2874 -4.7159,-6.91078 c -8.45297,-12.38722 -10.95381,-21.12171 -11.70455,-40.87956 -0.75833,-19.95788 0.76532,-29.71447 6.38888,-40.91072 11.35155,-22.60043 29.40036,-33.50706 64.1748,-38.77987 10.67179,-1.61816 30.39386,-2.12983 82.3486,-2.13645 l 68.31611,-0.009 v 40.39062 40.39062 l -21.04875,0.96291 c -11.57681,0.5296 -38.03457,0.96534 -58.79501,0.96832 l -37.74626,0.005 -6.72329,4.26379 c -12.11771,7.68482 -16.40666,23.33546 -10.01387,36.5412 4.14975,8.57225 14.50486,13.8479 27.18086,13.8479 11.56221,0 18.10199,-3.43317 22.54525,-11.83549 5.89684,-11.15111 3.85435,-22.9368 -5.56446,-32.10839 l -4.93001,-4.80059 h 34.85549 34.8555 l 6.91234,7.68819 c 14.033,15.60808 19.21565,31.24337 18.10732,54.62707 -0.68014,14.34924 -1.26953,16.9932 -6.01636,26.98869 -6.17691,13.0068 -14.59481,21.81774 -27.32899,28.60499 -20.60516,10.98244 -45.62594,13.51879 -133.57189,13.54019 l -54.28361,0.0132 z"
     id="path2" />
  <path
     style="fill:#ffffff;stroke-width:1.4771"
     d="m 140.32496,316.10044 v -41.35893 h 21.33085 c 14.05725,0 21.67694,-0.55999 22.34581,-1.64225 1.65995,-2.68586 -2.18407,-3.98984 -14.879,-5.04732 l -12.00211,-0.99978 -4.73477,-6.93844 c -9.72794,-14.25558 -11.2724,-20.55141 -11.26814,-45.93351 0.004,-20.57647 0.34907,-23.71788 3.41275,-31.01921 7.79566,-18.57848 23.18278,-32.37168 42.95542,-38.50573 20.47138,-6.35083 33.82419,-7.2666 106.08882,-7.27581 l 68.31611,-0.009 v 40.39062 40.39062 l -21.04875,0.96291 c -11.57681,0.5296 -38.03457,0.96534 -58.79501,0.96832 l -37.74626,0.005 -6.72329,4.26379 c -14.18481,8.99574 -17.5049,29.54434 -6.68136,41.35204 8.38819,9.15092 28.46139,12.17288 37.95207,5.71356 14.13057,-9.61716 15.88895,-26.15655 4.13637,-38.9066 l -6.00474,-6.51437 h 34.76321 34.7632 l 6.91235,7.68819 c 14.033,15.60808 19.21564,31.24336 18.10732,54.62707 -0.68014,14.34924 -1.26954,16.9932 -6.01636,26.98869 -6.17691,13.0068 -14.59481,21.81774 -27.329,28.60499 -20.60515,10.98244 -45.62593,13.51879 -133.57188,13.54019 l -54.28361,0.0132 z"
     id="path3" />
  <path
     style="fill:#ffffff;stroke-width:1.4771"
     d="m 140.32496,316.10044 v -41.35893 h 21.33085 c 11.73196,0 21.69511,-0.58938 22.14031,-1.30974 1.62766,-2.63361 -3.12018,-4.36074 -14.77404,-5.37435 l -11.92326,-1.03704 -4.72392,-6.92256 c -9.58703,-14.04907 -11.22706,-20.6228 -11.27139,-45.17906 -0.047,-25.98506 1.65209,-32.61696 11.93421,-46.58424 7.81892,-10.62124 20.53386,-19.36838 34.363,-23.63977 21.11773,-6.5226 32.48786,-7.31178 105.43532,-7.31806 l 69.05466,-0.006 v 40.39062 40.39062 l -21.04875,0.96292 c -11.57681,0.52959 -37.86537,0.96534 -58.419,0.96831 -41.63039,0.006 -41.76349,0.0326 -50.89002,10.1345 -8.69847,9.62818 -9.35835,24.98334 -1.47618,34.35076 5.56585,6.61464 14.12676,10.10183 24.89468,10.14059 14.37457,0.0518 24.03133,-8.24741 25.33063,-21.76949 0.79709,-8.29555 -1.72043,-14.52388 -8.94989,-22.14195 l -4.55571,-4.80059 h 34.7996 34.7996 l 6.72481,7.18939 c 7.6978,8.22956 12.98763,17.91955 16.63884,30.47928 1.98039,6.81233 2.37425,12.24599 1.7865,24.6466 -0.68014,14.34924 -1.26954,16.9932 -6.01636,26.98868 -6.17691,13.00681 -14.59481,21.81774 -27.329,28.60499 -20.60515,10.98244 -45.62593,13.51879 -133.57188,13.54019 l -54.28361,0.0132 z"
     id="path4" />
  <path
     style="fill:#ffffff;stroke-width:1.4771"
     d="m 140.32496,316.10044 v -41.35893 h 21.33085 c 11.73196,0 21.69511,-0.58938 22.14031,-1.30974 1.61022,-2.60539 -3.07851,-4.29101 -14.74692,-5.30161 l -11.89616,-1.03032 -4.75103,-6.96229 c -9.7474,-14.28409 -11.28915,-20.56554 -11.27999,-45.95734 0.009,-26.02404 1.7989,-32.8675 12.16057,-46.50434 11.1203,-14.63526 27.02774,-22.80293 53.51209,-27.47578 13.6088,-2.40111 24.06321,-2.74217 85.30281,-2.78291 l 69.79321,-0.0464 v 40.39062 40.39062 l -21.04875,0.96291 c -11.57681,0.5296 -37.86537,0.96534 -58.419,0.96832 -40.45244,0.006 -41.56931,0.19528 -49.3313,8.36689 -14.77303,15.55263 -9.3025,39.30313 10.30725,44.74929 18.51587,5.14236 34.23889,-2.72259 36.57413,-18.29507 1.26842,-8.45847 -1.2477,-15.94228 -7.79733,-23.19194 l -5.16348,-5.71535 h 34.68172 34.68172 l 6.72481,7.18939 c 13.7846,14.73684 19.45923,31.57363 18.49872,54.8862 -0.5922,14.37315 -1.125,16.77402 -6.00101,27.04149 -6.27037,13.20363 -14.61809,21.96973 -27.41773,28.79186 -20.60515,10.98244 -45.62593,13.51879 -133.57188,13.54019 l -54.28361,0.0132 z"
     id="path5" />
  <path
     style="fill:#ffffff;stroke-width:1.4771"
     d="m 140.32496,316.10044 v -41.35893 l 20.3102,-0.0226 c 20.67714,-0.023 27.01453,-1.22377 21.61757,-4.09588 -1.53147,-0.815 -7.92426,-1.96049 -14.2062,-2.54555 l -11.42171,-1.06371 -4.43102,-6.68962 c -9.47017,-14.29736 -11.06353,-20.94294 -11.06353,-46.14392 0,-26.02515 1.78663,-32.86221 12.15232,-46.50434 11.1203,-14.63526 27.02774,-22.80293 53.51209,-27.47578 13.6088,-2.40111 24.06321,-2.74218 85.30281,-2.78291 l 69.79321,-0.0464 v 40.39139 40.39138 l -20.17447,0.96756 c -11.09595,0.53214 -37.0405,0.96754 -57.65453,0.96754 -41.70301,0 -43.87261,0.39233 -51.7434,9.35667 -13.18844,15.0208 -8.38524,36.86412 9.44186,42.93843 14.37737,4.89886 27.57064,1.88291 34.02376,-7.77775 7.05516,-10.56191 5.77395,-22.50864 -3.51675,-32.79234 l -5.25495,-5.81659 h 34.68172 34.68172 l 6.72481,7.18939 c 13.7846,14.73684 19.45923,31.57363 18.49872,54.8862 -0.5922,14.37315 -1.125,16.77402 -6.00101,27.04149 -6.27037,13.20363 -14.61809,21.96973 -27.41773,28.79186 -20.60515,10.98244 -45.62593,13.51879 -133.57188,13.54019 l -54.28361,0.0132 z"
     id="path6" />
  <path
     style="fill:#ffffff;stroke-width:1.4771"
     d="m 140.32496,316.10044 v -41.35893 l 19.57164,-0.10383 c 10.76441,-0.0571 20.88621,-0.6174 22.49291,-1.24513 2.91027,-1.13702 2.91027,-1.14706 0,-2.66971 -1.6067,-0.84061 -7.98342,-1.99039 -14.17048,-2.55506 -9.94298,-0.90746 -11.59492,-1.49426 -14.22634,-5.05345 -5.48635,-7.42069 -10.42356,-18.67383 -12.23694,-27.89106 -2.70088,-13.72835 -1.20313,-41.83404 2.77442,-52.06227 6.43896,-16.55776 20.81337,-30.41072 38.37245,-36.98041 20.08128,-7.51338 22.85778,-7.7389 103.28645,-8.38977 l 75.70163,-0.6126 v 40.60812 40.60812 l -12.92467,0.56644 c -7.10857,0.31154 -33.03516,0.71047 -57.61463,0.88651 -24.57948,0.17604 -46.21961,0.90163 -48.08918,1.61245 -5.83784,2.21954 -13.14014,9.33365 -15.96582,15.55437 -9.17246,20.19311 6.89818,39.73373 30.66089,37.2812 9.77081,-1.00844 16.20925,-5.3617 19.87811,-13.44029 4.78103,-10.52754 3.02168,-19.13264 -6.01634,-29.42638 l -4.76911,-5.43172 h 34.66285 34.66286 l 6.72481,7.18939 c 13.7846,14.73684 19.45923,31.57363 18.49872,54.8862 -0.5922,14.37316 -1.125,16.77402 -6.00101,27.04149 -9.09285,19.14697 -23.84005,30.35449 -48.10854,36.56131 -15.82422,4.04717 -49.23614,5.75526 -112.88107,5.77074 l -54.28361,0.0132 z"
     id="path7" />
  <path
     style="fill:#ffffff;stroke-width:1.4771"
     d="m 140.32496,316.10044 v -41.35893 l 19.57164,-0.10383 c 10.76441,-0.0571 20.90104,-0.64859 22.52585,-1.31442 2.80829,-1.15081 2.77181,-1.28116 -0.73855,-2.63899 -2.03102,-0.7856 -8.34564,-1.8902 -14.0325,-2.45465 -11.45667,-1.13715 -13.68146,-2.85025 -20.00376,-15.40304 -5.34436,-10.61108 -7.28793,-20.72864 -7.28207,-37.90782 0.007,-19.62743 2.34882,-30.43744 8.9889,-41.48805 11.55754,-19.23436 31.23674,-29.83606 64.08718,-34.52545 5.68685,-0.81179 41.41433,-1.48916 79.39439,-1.50525 l 69.05466,-0.0293 v 40.62039 40.62039 l -3.32349,0.17016 c -1.82792,0.0936 -28.63507,0.59211 -59.57147,1.10783 l -56.24797,0.93766 -5.54691,4.23313 c -19.38402,14.79293 -15.28974,41.89121 7.26,48.05081 17.71169,4.83805 32.45349,-2.85452 35.38164,-18.46287 1.35134,-7.20328 -1.34137,-15.36166 -7.41036,-22.45191 l -5.30636,-6.19929 h 34.62493 34.62495 l 6.73351,7.19868 c 13.91091,14.87189 19.62634,32.20378 18.47873,56.0363 -0.63006,13.08415 -1.31477,16.03799 -6.00907,25.92285 -6.3949,13.46584 -15.24754,22.74399 -27.69739,29.02865 -21.40565,10.80555 -45.94221,13.26238 -132.53432,13.27062 l -55.02216,0.005 z"
     id="path8" />
  <path
     style="fill:#ffffff;stroke-width:1.4771"
     d="m 140.32496,316.10044 v -41.35893 l 18.83309,-0.14724 c 10.35819,-0.081 20.49483,-0.65241 22.52585,-1.26984 l 3.69276,-1.12259 -3.69276,-1.47298 c -2.03102,-0.81013 -8.34564,-1.93479 -14.0325,-2.49924 -11.45667,-1.13715 -13.68146,-2.85025 -20.00376,-15.40304 -5.34436,-10.61108 -7.28793,-20.72864 -7.28207,-37.90782 0.007,-19.62743 2.34882,-30.43744 8.9889,-41.48805 11.55754,-19.23436 31.23674,-29.83605 64.08718,-34.52544 5.68685,-0.8118 41.41433,-1.48917 79.39439,-1.50526 l 69.05466,-0.0293 v 40.62039 c 0,31.41963 -0.41822,40.65943 -1.84639,40.79278 -1.01551,0.0948 -27.43722,0.59334 -58.71491,1.10783 -64.33071,1.05818 -62.80212,0.77455 -71.59452,13.28461 -3.66265,5.2113 -4.42715,7.75187 -4.42715,14.71215 0,15.14414 9.4785,24.66706 26.27776,26.4009 25.08587,2.58909 37.55024,-22.57868 20.84665,-42.09307 l -5.30636,-6.19929 h 34.62493 34.62495 l 6.72481,7.18938 c 7.56055,8.08283 13.83942,19.48734 16.77936,30.47679 2.32665,8.697 2.5674,29.769 0.44529,38.97392 -4.052,17.57607 -16.43474,33.46511 -32.3357,41.49189 -21.57827,10.89267 -45.03664,13.27267 -131.16519,13.3075 l -56.49927,0.0229 z"
     id="path9" />
  <path
     style="fill:#ffffff;stroke-width:1.4771"
     d="m 140.32496,316.10044 v -41.35893 h 16.80207 c 17.42088,0 26.03397,-0.99963 26.03397,-3.02149 0,-1.3832 -4.6477,-2.369 -17.47601,-3.70674 -9.30898,-0.97075 -9.37433,-1.01023 -14.22562,-8.594 -7.80398,-12.19959 -10.07638,-20.46441 -10.81315,-39.32794 -0.84775,-21.70469 1.33224,-34.15592 7.93804,-45.33893 11.82821,-20.02405 29.98322,-30.48044 61.16463,-35.2278 10.72022,-1.63215 30.33239,-2.1385 83.08715,-2.14515 l 69.05466,-0.009 v 40.62039 c 0,22.34121 -0.49853,40.68572 -1.10784,40.76559 -0.6093,0.0799 -27.03102,0.60027 -58.71492,1.15646 -63.62525,1.11688 -63.31249,1.0687 -70.64186,10.88289 -10.49194,14.04895 -7.76956,31.37974 6.15892,39.20798 16.95157,9.52733 37.28145,3.00482 41.69243,-13.37631 2.15484,-8.00248 -0.11778,-15.90607 -7.00254,-24.35301 l -5.11669,-6.2777 h 34.66264 34.66263 l 7.16447,7.86037 c 12.73222,13.96892 18.21984,28.97744 18.18912,49.74672 -0.0221,14.93536 -1.62362,22.65284 -7.01498,33.80405 -8.01128,16.57018 -24.27526,28.37022 -47.17498,34.22698 -16.24605,4.15504 -47.20391,5.77563 -110.82288,5.80137 l -56.49926,0.0229 z"
     id="path10" />
  <path
     style="fill:#ffffff;stroke-width:1.4771"
     d="m 140.32496,316.2421 v -41.2173 l 20.55845,-0.51093 c 18.68028,-0.46424 24.16287,-1.33366 22.00674,-3.4898 -0.41978,-0.41977 -6.54469,-1.50954 -13.61093,-2.4217 -12.80677,-1.65318 -12.86145,-1.67845 -17.1635,-7.93127 -9.67962,-14.06885 -11.02524,-19.73977 -11.03935,-46.52376 l -0.0128,-24.40509 5.0744,-10.30687 c 11.2813,-22.91402 30.28414,-34.83677 63.61097,-39.91077 10.72022,-1.63215 30.33239,-2.1385 83.08715,-2.14515 l 69.05466,-0.009 v 40.62039 c 0,22.34121 -0.16618,40.68083 -0.36928,40.75471 -0.20311,0.0739 -26.62482,0.60899 -58.71492,1.18913 -64.38327,1.16394 -64.02369,1.10929 -71.45216,10.8611 -2.01192,2.64118 -4.42588,7.85719 -5.36435,11.59113 -3.54075,14.08777 3.79859,25.93685 18.75923,30.28602 17.24787,5.01409 31.1138,-1.84759 34.60248,-17.12332 1.61186,-7.05782 -0.70974,-14.79298 -6.85699,-22.84633 l -5.11922,-6.70654 h 34.55399 34.55399 l 7.16447,7.86037 c 12.73222,13.96892 18.21984,28.97744 18.18912,49.74672 -0.0219,14.8161 -1.60671,22.5587 -6.91338,33.77609 -7.72198,16.32294 -24.35913,28.39366 -47.17968,34.23016 -16.49322,4.21826 -46.70758,5.81818 -110.18122,5.83439 l -57.23782,0.0146 z"
     id="path11" />
  <path
     style="fill:#ffffff;stroke-width:1.4771"
     d="M 140.32496,316.28979 V 275.1202 l 20.65701,-0.65925 c 18.93628,-0.60435 23.95649,-1.38856 21.92075,-3.4243 -0.41285,-0.41285 -6.33973,-1.42993 -13.17084,-2.26017 -13.49181,-1.63976 -14.52874,-2.31763 -21.34987,-13.95701 -6.35471,-10.84351 -8.43524,-22.82739 -7.82443,-45.06895 0.53201,-19.37243 0.73434,-20.46866 5.60334,-30.36007 6.79456,-13.80317 17.77565,-24.59041 31.46053,-30.90511 21.04774,-9.7122 24.55354,-10.05821 108.56762,-10.71517 l 75.70163,-0.59195 v 40.49772 40.49772 l -12.18612,0.94863 c -6.70236,0.52174 -29.80059,0.96597 -51.3294,0.98719 -54.51366,0.0537 -61.635,1.41723 -68.48397,13.11285 -9.79114,16.71978 -3.11859,34.22496 15.06014,39.50966 11.10963,3.22966 19.60424,1.72024 26.77444,-4.75761 5.29997,-4.78821 9.51354,-14.49785 8.19597,-18.88656 -0.27621,-0.92002 -0.88989,-3.44953 -1.36374,-5.62115 -0.47385,-2.17162 -3.18377,-6.99068 -6.02204,-10.70901 l -5.16049,-6.76062 h 34.55399 34.55399 l 7.16447,7.86037 c 12.73222,13.96892 18.21984,28.97744 18.18912,49.74673 -0.0219,14.8161 -1.60671,22.55869 -6.91338,33.77608 -7.72198,16.32294 -24.35913,28.39367 -47.17968,34.23017 -16.49322,4.21825 -46.70758,5.81817 -110.18122,5.83438 l -57.23782,0.0146 z"
     id="path12" />
  <path
     style="fill:#ffffff;stroke-width:1.4771"
     d="M 140.32496,316.28979 V 275.1202 l 20.65701,-0.65925 c 18.93628,-0.60435 23.95649,-1.38856 21.92075,-3.4243 -0.41285,-0.41285 -6.33973,-1.42993 -13.17084,-2.26017 -13.49181,-1.63976 -14.52874,-2.31763 -21.34987,-13.95701 -6.35471,-10.84351 -8.43524,-22.82739 -7.82443,-45.06895 0.53201,-19.37243 0.73434,-20.46866 5.60334,-30.36007 6.79456,-13.80317 17.77565,-24.59041 31.46053,-30.90511 21.04774,-9.7122 24.55354,-10.05821 108.56762,-10.71517 l 75.70163,-0.59195 v 40.56792 40.56791 l -7.01625,0.68149 c -3.85894,0.37482 -26.29247,0.8122 -49.85229,0.97198 -63.23472,0.42882 -67.88732,1.31636 -75.56333,14.41448 -9.46238,16.14634 -1.3828,34.42021 17.1883,38.87536 17.75074,4.25833 32.77187,-6.23252 32.77187,-22.88809 0,-6.89636 -2.45659,-12.64354 -8.44792,-19.76384 l -3.87771,-4.60839 h 34.69505 34.69505 l 7.16447,7.84514 c 12.93474,14.16361 18.14538,28.42209 18.20664,49.82089 0.10371,36.2274 -17.75132,58.64819 -54.11058,67.94732 -16.49322,4.21825 -46.70758,5.81817 -110.18122,5.83438 l -57.23782,0.0146 z"
     id="path13" />
  <path
     style="fill:#ffffff;stroke-width:1.4771"
     d="m 140.32496,316.10044 v -41.35893 l 14.40177,-0.12941 c 16.97027,-0.15248 29.86619,-1.65181 27.47742,-3.19464 -0.93247,-0.60225 -6.91475,-1.7945 -13.29394,-2.64943 -12.55287,-1.68234 -13.86036,-2.57076 -20.5282,-13.94856 -6.35471,-10.84351 -8.43524,-22.82739 -7.82443,-45.06895 0.53201,-19.37243 0.73434,-20.46866 5.60334,-30.36007 6.75713,-13.72714 17.68394,-24.47907 31.41614,-30.91333 20.64213,-9.67193 24.46674,-10.04897 108.61201,-10.70695 l 75.70163,-0.59195 v 40.56792 40.56791 l -7.01625,0.68028 c -3.85894,0.37415 -25.7004,0.79187 -48.53658,0.92826 -45.63783,0.27257 -63.47969,1.68266 -69.26647,5.47431 -6.33071,4.14803 -11.07436,13.82461 -11.07436,22.59057 0,13.4807 7.55329,22.28308 21.72992,25.32342 17.48767,3.75044 31.44586,-6.44344 31.44586,-22.96537 0,-7.50285 -1.25304,-10.55449 -7.72337,-18.80933 l -4.3417,-5.53915 35.20535,0.0964 35.20536,0.0964 7.02842,8.28014 c 12.75093,15.02183 17.24882,28.04439 17.3077,50.11039 0.0944,35.36105 -17.97846,57.78898 -53.98891,66.99891 -16.76866,4.28869 -46.21729,5.86753 -109.56434,5.87409 l -57.97637,0.006 z"
     id="path14" />
  <path
     style="fill:#ffffff;stroke-width:1.4771"
     d="m 140.32496,316.10044 v -41.35893 l 14.40177,-0.12941 c 16.97027,-0.15248 29.86619,-1.65181 27.47742,-3.19464 -0.93247,-0.60225 -6.91475,-1.7945 -13.29394,-2.64943 -12.55287,-1.68234 -13.86036,-2.57076 -20.5282,-13.94856 -6.35701,-10.84742 -8.43695,-22.8291 -7.81016,-44.99116 0.53251,-18.82909 0.84599,-20.61569 5.26839,-30.02599 8.94735,-19.03883 25.80824,-31.69609 50.98806,-38.27611 11.54869,-3.01792 16.1562,-3.2142 88.62222,-3.77527 l 76.44018,-0.59183 v 40.7262 c 0,22.39941 -0.16618,40.80419 -0.36928,40.8995 -0.20311,0.0953 -26.01024,0.63355 -57.34919,1.1961 -56.46931,1.01364 -57.04461,1.05511 -64.1979,4.6273 -9.13306,4.56084 -13.97729,12.98195 -13.97729,24.29785 0,14.3322 11.63505,24.72462 27.92879,24.94599 14.90496,0.20251 25.24699,-9.24357 25.24699,-23.05977 0,-7.94844 -1.19447,-10.92653 -7.72337,-19.25609 l -4.34171,-5.53915 35.20536,0.0208 35.20536,0.0208 7.06686,8.47259 c 12.85654,15.41397 17.21047,28.03743 17.26926,50.06922 0.0944,35.36105 -17.97846,57.78898 -53.98891,66.99891 -16.76866,4.28869 -46.21729,5.86753 -109.56434,5.87409 l -57.97637,0.006 z"
     id="path15" />
</svg>
