<?xml version="1.0" encoding="UTF-8" standalone="no"?>
<svg
   version="1.0"
   width="6912pt"
   height="3456pt"
   viewBox="0 0 6912 3456"
   preserveAspectRatio="xMidYMid"
   id="svg9"
   xmlns="http://www.w3.org/2000/svg"
   xmlns:svg="http://www.w3.org/2000/svg">
  <defs
     id="defs9" />
  <g
     transform="matrix(0.1,0,0,-0.1,0,3456)"
     fill="#000000"
     stroke="none"
     id="g9">
    <path
       d="m 3460,17280 v -6220 h 7085 7085 v 1011 1011 l -22,6 c -13,3 -59,24 -103,46 -150,75 -278,232 -319,392 -20,79 -21,222 -1,299 45,174 171,330 325,404 46,23 92,41 102,41 17,0 18,175 18,4615 v 4615 H 10545 3460 Z m 3936,3325 c 7,-22 144,-456 304,-965 332,-1054 969,-3041 979,-3052 4,-4 159,432 346,970 186,537 506,1452 711,2032 l 372,1055 h 697 697 l 352,-1000 c 194,-550 516,-1471 716,-2047 201,-576 367,-1044 371,-1040 9,10 653,2020 1002,3127 l 303,960 772,3 c 424,1 772,-1 772,-5 0,-8 -64,-207 -1290,-4003 l -787,-2435 -719,-3 -720,-2 -624,1777 c -343,978 -671,1914 -729,2080 -58,167 -108,303 -111,303 -3,0 -147,-406 -322,-903 -174,-496 -502,-1432 -729,-2080 l -414,-1177 -724,2 -724,3 -1033,3214 c -569,1768 -1034,3218 -1034,3223 0,4 346,7 777,6 l 776,-3 z"
       id="path1" />
    <path
       d="m 17950,18886 v -4613 l 63,-23 c 34,-12 92,-42 129,-67 166,-109 248,-274 248,-498 0,-185 -48,-303 -175,-431 -67,-68 -95,-89 -172,-125 l -92,-44 -1,-1012 v -1013 h 23855 23855 v 6220 6220 H 41805 17950 Z M 65060,17280 V 11660 H 41800 18540 v 5620 5620 h 23260 23260 z"
       id="path2" />
    <path
       d="m 31565,20780 c -380,-26 -783,-111 -1105,-235 -813,-312 -1413,-852 -1771,-1590 -217,-448 -322,-895 -336,-1425 -41,-1552 816,-2804 2237,-3268 560,-183 1144,-240 1754,-171 1382,155 2438,971 2846,2199 181,545 226,1156 129,1750 -162,989 -720,1795 -1583,2285 -405,230 -890,381 -1411,440 -163,19 -587,27 -760,15 z m 674,-1754 c 334,-75 563,-197 786,-421 137,-136 210,-240 291,-409 105,-223 152,-429 161,-706 10,-324 -36,-568 -158,-829 -93,-199 -252,-402 -416,-532 -429,-342 -1086,-437 -1650,-238 -295,104 -565,314 -739,575 -194,292 -285,639 -271,1038 14,412 144,755 392,1039 204,233 477,395 799,472 157,38 224,44 466,40 197,-3 239,-6 339,-29 z"
       id="path3" />
    <path
       d="m 52408,20779 c -558,-38 -1115,-200 -1563,-454 -559,-317 -986,-758 -1264,-1304 -235,-462 -351,-932 -367,-1486 -28,-936 269,-1767 860,-2409 191,-208 461,-422 711,-566 472,-272 962,-423 1560,-482 209,-20 625,-15 845,11 893,105 1662,474 2187,1051 541,593 824,1318 849,2170 33,1106 -381,2057 -1181,2712 -322,263 -765,490 -1196,613 -448,127 -948,178 -1441,144 z m 579,-1734 c 349,-49 644,-189 875,-413 213,-206 348,-443 422,-740 43,-172 51,-245 50,-487 0,-211 -2,-241 -27,-356 -49,-230 -130,-425 -250,-604 -75,-110 -263,-300 -370,-374 -198,-135 -477,-241 -717,-270 -126,-16 -400,-14 -521,5 -696,103 -1199,591 -1320,1280 -30,171 -37,443 -15,594 56,386 203,692 450,935 239,234 536,379 878,429 127,19 418,19 545,1 z"
       id="path4" />
    <path
       d="m 19980,17425 v -3225 h 925 925 l 2,1629 3,1629 615,-861 616,-862 606,-3 606,-2 614,861 613,861 3,-1626 2,-1626 h 925 925 v 3225 3225 h -758 -759 l -224,-317 c -124,-175 -611,-864 -1084,-1531 -472,-667 -862,-1211 -867,-1210 -4,2 -189,260 -411,574 -221,313 -706,1001 -1077,1527 l -675,957 h -762 -763 z"
       id="path5" />
    <path
       d="m 36323,18598 c 4,-2224 1,-2095 57,-2405 81,-447 263,-861 520,-1183 38,-47 124,-139 192,-206 411,-404 965,-646 1648,-720 192,-21 582,-24 770,-5 1054,101 1821,611 2200,1460 119,267 196,564 241,931 9,69 13,645 16,2138 l 4,2042 h -925 -925 l -4,-1937 c -4,-2084 -2,-1999 -57,-2220 -97,-386 -337,-613 -711,-673 -119,-19 -392,-8 -498,20 -401,106 -612,407 -660,940 -7,76 -11,757 -11,1993 v 1877 h -930 -931 z"
       id="path6" />
    <path
       d="m 42860,19790 v -860 h 980 980 v -2365 -2365 h 930 930 v 2365 2365 h 980 980 v 860 860 h -2890 -2890 z"
       id="path7" />
    <path
       d="m 57240,17425 v -3225 h 920 920 l 2,1640 3,1641 900,-1208 c 495,-664 1045,-1403 1223,-1640 l 323,-433 h 754 755 v 3225 3225 h -915 -915 l -2,-1634 -3,-1635 -1224,1635 -1224,1634 h -759 -758 z"
       id="path8" />
    <path
       d="m 17709,14070 c -69,-12 -132,-43 -184,-91 -86,-79 -126,-173 -126,-293 -1,-71 3,-87 35,-152 80,-161 246,-248 412,-214 126,26 229,106 283,220 23,48 26,68 26,160 0,99 -2,110 -33,172 -52,105 -135,167 -261,194 -72,15 -84,15 -152,4 z"
       id="path9" />
  </g>
  <path
     style="fill:#000000;stroke-width:10.2098"
     d="m 347.13146,1730.5524 v -617.6898 h 704.47264 704.4727 v 456.9828 c 0,445.9255 -0.4941,457.2913 -20.4195,469.735 -27.5266,17.1906 -27.5266,74.4507 0,99.362 17.6445,15.968 20.4195,31.4457 20.4195,113.8897 v 95.4102 H 1051.6041 347.13146 Z m 606.61234,268.006 c 8.87475,-23.8653 40.99785,-114.6044 71.3848,-201.6426 30.8823,-88.4571 57.8925,-151.4969 61.243,-142.9365 3.2968,8.4231 35.1203,98.0136 70.7189,199.0901 l 64.7249,183.7755 78.2503,2.9819 c 43.0377,1.64 78.2504,0.4147 78.2504,-2.723 0,-3.1376 45.9439,-147.5249 102.0975,-320.8606 56.1536,-173.3356 102.0975,-317.9821 102.0975,-321.4365 0,-3.4545 -36.5583,-6.2809 -81.2405,-6.2809 H 1420.03 l -63.1734,196.5377 c -34.7453,108.0957 -65.5523,189.6461 -68.4597,181.223 -2.9075,-8.423 -33.6486,-95.7163 -68.3136,-193.9852 l -63.0273,-178.6706 -75.6978,-2.8956 -75.6979,-2.8956 -66.36338,189.2212 c -58.33935,166.3423 -81.678,217.1627 -81.678,177.8551 0,-6.254 -25.8915,-91.2501 -57.5367,-188.8804 l -57.53669,-177.5095 h -80.29492 c -47.85239,0 -80.29492,4.214 -80.29492,10.4297 0,7.6132 152.01641,488.3194 199.30176,630.232 2.89447,8.6869 28.5366,12.7622 80.30145,12.7622 h 76.04917 z"
     id="path10" />
  <path
     style="fill:#ffffff;stroke-width:10.2098"
     d="m 1858.1743,1730.5524 v -556.4313 h 2322.7179 2322.7179 v 556.4313 556.4314 H 4180.8922 1858.1743 Z m 1483.7777,293.1182 c 80.4943,-36.1263 125.5345,-78.6415 162.1879,-153.0951 30.5304,-62.0159 33.5073,-76.3852 33.1954,-160.2279 -0.2952,-79.4005 -4.2456,-100.1477 -28.6438,-150.4399 -58.0173,-119.5912 -170.3879,-183.521 -323.2499,-183.903 -155.412,-0.3882 -256.7443,58.049 -318.6258,183.7483 -30.2682,61.4833 -33.5553,76.9239 -33.0558,155.2701 1.0233,160.4909 74.6393,266.1676 222.0162,318.707 73.4751,26.1936 216.6099,21.1622 286.1758,-10.0595 z m 716.4232,0.5831 c 55.4572,-28.9971 103.2936,-80.9652 121.1719,-131.6379 10.2072,-28.9302 17.1617,-114.1551 22.2834,-273.0728 l 7.4452,-231.0172 h -103.5271 -103.5271 v 214.8688 c 0,214.5194 -0.041,214.9096 -25.0603,239.9291 -30.819,30.8191 -84.9194,33.3806 -119.1743,5.6426 -20.6801,-16.7456 -24.9282,-31.849 -30.8713,-109.7548 -3.7904,-49.6854 -7.2915,-148.9155 -7.7806,-220.5114 l -0.889,-130.1743 h -96.9925 -96.9926 v 207.0749 c 0,227.3828 9.2178,286.733 54.7342,352.4133 26.5883,38.3668 82.6902,77.0245 137.4782,94.7309 50.2508,16.2401 196.7067,5.0355 241.7019,-18.4912 z m 1331.7024,11.8746 c 156.8411,-44.2483 243.7949,-174.9435 233.2948,-350.6522 -5.3028,-88.7387 -30.073,-147.2812 -88.2185,-208.4971 -167.7689,-176.6279 -511.0969,-117.8332 -593.1912,101.5836 -32.6304,87.2124 -29.2242,205.78 8.1792,284.7165 27.8326,58.7383 85.3677,121.7827 135.9622,148.9812 76.6582,41.2099 206.3958,51.3969 303.9735,23.868 z M 2184.8863,1881.8391 v -160.1107 l 58.706,83.364 58.7061,83.3639 66.3634,-0.078 66.3633,-0.078 53.6012,-78.3261 53.6011,-78.3261 v 155.1505 155.1506 h 96.9927 96.9926 v -326.712 -326.712 l -79.1255,0.024 -79.1256,0.024 -105.492,148.9561 -105.4919,148.9561 -103.8079,-148.5677 -103.8079,-148.5675 -84.2305,-0.4122 -84.2304,-0.412 v 326.712 326.7119 h 96.9926 96.9927 z m 2491.1787,-74.7136 v -234.8242 h 96.9926 96.9926 v -91.8877 -91.8878 h -296.0827 -296.0827 v 91.8878 91.8877 h 96.9926 96.9927 v 228.0177 c 0,125.4098 3.0629,231.0807 6.8064,234.8243 3.7436,3.7435 49.6875,6.8065 102.0975,6.8065 h 95.291 z m 1235.3796,74.2303 v -160.5941 l 118.4259,160.5941 118.4258,160.594 h 80.6642 80.6643 v -326.712 -326.712 h -96.7267 -96.7267 l -2.8183,153.3387 -2.8184,153.3387 -114.9308,-153.3387 -114.9309,-153.3387 h -81.6068 -81.6068 v 326.712 326.712 h 96.9926 96.9926 z"
     id="path11" />
  <path
     style="fill:#ffffff;stroke-width:10.2098"
     d="m 793.4181,2024.5291 c -2.58458,-4.457 -47.22378,-141.3409 -99.19825,-304.1864 -51.97447,-162.8455 -96.69055,-301.8257 -99.36906,-308.845 -3.6121,-9.4656 13.77911,-12.7621 67.32979,-12.7621 h 72.1998 l 63.53404,199.0901 c 34.9437,109.4996 66.73073,199.0901 70.63793,199.0901 3.90712,0 38.1651,-89.7854 76.12882,-199.5231 l 69.02493,-199.5231 67.4454,2.9855 67.4452,2.9854 70.3364,201.9236 c 38.685,111.058 73.1428,199.1523 76.5731,195.7651 3.4302,-3.3873 34.3196,-94.2529 68.6431,-201.9237 l 62.4063,-195.765 71.7886,-2.9779 71.7887,-2.9778 -38.3674,120.3899 c -21.1021,66.2145 -66.893,209.0342 -101.7576,317.3771 l -63.3902,196.9872 -68.1714,-3.0019 -68.1716,-3.002 -67.5211,-193.1854 c -37.1366,-106.252 -71.6004,-199.6523 -76.5861,-207.5563 -6.2885,-9.9694 -31.3035,49.1994 -81.6738,193.1854 l -72.60888,207.5564 -66.88372,2.9988 c -36.78608,1.6494 -68.99843,-0.6477 -71.583,-5.1049 z"
     id="path12" />
  <path
     style="fill:#ffffff;stroke-width:10.2098"
     d="m 1858.1743,1730.5524 v -556.4313 h 2322.7179 2322.7179 v 556.4313 556.4314 H 4180.8922 1858.1743 Z m 1491.5063,289.2697 c 147.5229,-67.9275 221.1643,-230.2849 179.0373,-394.7231 -41.4868,-161.9387 -164.8442,-250.3346 -347.7711,-249.207 -152.012,0.9369 -253.2544,60.1967 -314.131,183.8687 -30.2578,61.4692 -33.5574,76.9578 -33.078,155.2701 0.6356,103.8313 29.1934,177.7168 92.4854,239.2817 75.8511,73.781 148.176,98.7298 274.533,94.7017 72.921,-2.3247 103.661,-8.3504 148.9244,-29.1921 z m 710.3316,3.4774 c 52.5688,-26.8187 108.9919,-91.6522 123.6453,-142.0759 6.1318,-21.1001 14.3873,-140.589 18.3456,-265.5308 l 7.1969,-227.1669 h -103.4893 -103.4892 v 214.8687 c 0,214.5194 -0.041,214.9096 -25.0603,239.9292 -30.7808,30.7809 -84.9084,33.3894 -119.0569,5.7376 -20.2202,-16.3733 -24.944,-32.3466 -30.9485,-104.6499 -3.8974,-46.93 -7.4514,-146.2029 -7.8978,-220.6065 l -0.812,-135.2791 h -97.9623 -97.9623 l 3.9306,232.2717 c 4.3431,256.6524 9.7359,282.5215 72.5469,348.0026 62.9111,65.5854 116.7777,84.0371 231.936,79.4486 63.0211,-2.511 98.5591,-9.3802 129.0773,-24.9493 z m 1372.0401,-3.2865 c 77.76,-35.8064 126.272,-81.2385 159.9283,-149.7748 25.1079,-51.1284 28.4853,-69.5105 28.4785,-155.0003 -0.01,-77.5161 -4.3879,-106.4694 -21.8216,-144.1863 -65.4089,-141.5094 -222.4898,-218.946 -389.8883,-192.2039 -178.4784,28.5121 -287.7291,153.5362 -287.5933,329.1158 0.071,91.9179 11.98,135.5604 53.8192,197.2295 72.0385,106.1819 164.2458,149.2555 308.5699,144.1453 72.2235,-2.5573 104.0046,-8.833 148.5073,-29.3253 z m -3247.166,-138.1739 v -160.1107 l 58.706,83.364 58.7061,83.3639 66.3634,-0.2088 66.3633,-0.2088 53.6012,-78.6202 53.6011,-78.6202 v 155.5757 155.5758 h 96.9927 96.9926 v -326.712 -326.712 l -79.1255,0.2532 -79.1256,0.253 -105.781,148.7172 -105.781,148.7173 -32.0506,-45.1486 c -17.6279,-24.8317 -64.2114,-91.7275 -103.5189,-148.6573 l -71.4682,-103.5087 -84.2305,-0.313 -84.2304,-0.3131 v 326.712 326.712 h 96.9926 96.9927 z m 2491.1787,-74.7136 v -234.8242 h 96.9926 96.9926 v -91.8877 -91.8878 h -296.0827 -296.0827 v 91.8878 91.8877 h 96.9926 96.9927 v 187.4554 c 0,103.1004 2.9217,208.7714 6.4925,234.8242 l 6.4927,47.3689 h 95.6048 95.6049 z m 1235.3796,74.7155 v -160.1088 l 119.7541,160.1088 119.7542,160.1088 h 79.3359 79.336 v -326.712 -326.712 h -96.7267 -96.7267 l -2.8183,153.3387 -2.8184,153.3387 -114.9308,-153.3387 -114.9309,-153.3387 h -81.6068 -81.6068 v 326.712 326.712 h 96.9926 96.9926 z"
     id="path13" />
  <path
     style="fill:#ffffff;stroke-width:10.2098"
     d="m 3106.2228,1848.6208 c -46.1523,-28.9731 -73.8433,-78.3819 -73.8893,-131.84 -0.1047,-121.9094 108.6507,-194.5526 218.5127,-145.9555 66.6962,29.5029 89.8297,70.8651 85.2383,152.4048 -3.2651,57.9873 -7.1895,67.7236 -40.8744,101.4085 -32.7895,32.7896 -44.3719,37.7192 -96.4874,41.0669 -46.5742,2.9919 -66.3326,-0.6576 -92.4999,-17.0847 z"
     id="path14" />
  <path
     style="fill:#ffffff;stroke-width:10.2098"
     d="m 5186.5473,1845.4121 c -88.6331,-60.4999 -94.4861,-185.3113 -11.9472,-254.7631 89.9873,-75.7194 234.6281,-19.5474 252.2498,97.9624 8.9291,59.5433 -21.6358,130.4159 -68.5896,159.0427 -47.6893,29.0752 -127.357,28.035 -171.713,-2.242 z"
     id="path15" />
  <path
     style="fill:#ffffff;stroke-width:10.2098"
     d="m 1858.1743,1730.5524 v -556.4313 h 2322.7179 2322.7179 v 556.4313 556.4314 H 4180.8922 1858.1743 Z m 1485.9842,291.9028 c 65.9772,-29.0816 140.5676,-103.2024 169.5149,-168.4476 17.8815,-40.3037 23.1705,-71.5383 23.5347,-138.9845 0.4238,-78.4729 -2.8654,-93.7723 -33.5678,-156.1378 -41.1644,-83.6168 -108.7596,-141.909 -192.9314,-166.3783 -78.0128,-22.679 -224.8077,-15.8572 -290.1462,13.4836 -63.3434,28.4448 -127.2821,94.2422 -160.1446,164.8001 -36.2174,77.7609 -37.6041,204.9284 -3.0781,282.2787 40.2326,90.1348 128.5044,164.7027 223.2932,188.6274 64.8032,16.3564 206.1845,6.0333 263.5253,-19.2416 z m 676.7734,13.9515 c 62.916,-18.6841 117.2279,-63.4256 147.0186,-121.1121 17.5749,-34.0322 23.0274,-69.333 29.3231,-189.847 4.2536,-81.4228 8.0509,-190.5395 8.4384,-242.4816 l 0.7045,-94.4402 H 4104.319 4002.2215 v 214.8688 c 0,214.5194 -0.041,214.9096 -25.0603,239.9291 -30.7808,30.7809 -84.9084,33.3895 -119.0569,5.7377 -20.2202,-16.3733 -24.944,-32.3466 -30.9485,-104.6499 -3.8974,-46.9301 -7.4514,-146.2029 -7.8978,-220.6065 l -0.812,-135.2792 h -98.0847 -98.0847 l 4.2291,232.2718 c 3.4944,191.9177 7.3215,239.367 22.029,273.1108 29.943,68.6988 95.4968,126.096 169.8453,148.7117 44.0016,13.3847 147.2198,10.2184 202.5519,-6.2134 z m 1411.1204,-16.4537 c 77.7131,-35.7025 126.2554,-81.1447 159.9283,-149.7148 25.1053,-51.1231 28.4862,-69.5194 28.4862,-155.0004 0,-85.6134 -3.3613,-103.8375 -28.6501,-155.3356 -58.0794,-118.2727 -171.819,-183.9764 -318.4814,-183.9764 -115.53,0 -186.9827,28.2832 -260.7306,103.2055 -73.6066,74.7785 -95.9909,139.8749 -89.3968,259.9778 8.4634,154.1506 99.3579,266.073 246.8321,303.9352 17.5049,4.4942 70.8794,6.9898 118.6099,5.5459 67.5196,-2.0426 99.3508,-8.3993 143.4024,-28.6372 z m -3247.166,-138.1139 v -160.1107 l 58.706,83.364 58.7061,83.3639 66.3634,-0.2088 66.3633,-0.2088 53.6012,-78.6202 53.6011,-78.6202 v 155.5757 155.5758 h 96.9927 96.9926 v -326.712 -326.712 l -79.1255,0.1135 -79.1256,0.1135 -84.193,119.8511 c -46.3061,65.918 -94.5472,132.5129 -107.2024,147.9884 l -23.0093,28.1373 -102.0975,-147.7815 -102.0975,-147.7815 -84.2305,-0.3204 -84.2304,-0.3204 v 326.712 326.712 h 96.9926 96.9927 z m 2491.1787,-74.7136 v -234.8242 h 96.9926 96.9926 v -91.8877 -91.8878 h -296.0827 -296.0827 v 91.8878 91.8877 h 96.9926 96.9927 l 0.9784,130.1743 c 0.5383,71.5959 2.2472,162.335 3.7976,201.6425 1.5505,39.3076 3.4074,86.4 4.1264,104.65 l 1.3073,33.1817 h 96.9926 96.9926 z m 1235.3796,74.7155 v -160.1088 l 119.7541,160.1088 119.7542,160.1088 h 79.3359 79.336 v -326.712 -326.712 h -96.7267 -96.7267 l -2.8183,153.3387 -2.8184,153.3387 -114.9308,-153.3387 -114.9309,-153.3387 h -81.6068 -81.6068 v 326.712 326.712 h 96.9926 96.9926 z"
     id="path16" />
  <path
     style="fill:#ffffff;stroke-width:10.2098"
     d="m 3106.2228,1848.6208 c -103.1234,-64.7381 -98.5476,-219.0723 8.1169,-273.7671 54.4361,-27.9133 83.4186,-28.519 139.8068,-2.9217 63.3001,28.7348 86.434,71.4516 81.938,151.2981 -3.2651,57.9873 -7.1895,67.7236 -40.8744,101.4085 -32.7895,32.7896 -44.3719,37.7192 -96.4874,41.0669 -46.5742,2.9919 -66.3326,-0.6576 -92.4999,-17.0847 z"
     id="path17" />
  <path
     style="fill:#ffffff;stroke-width:10.2098"
     d="m 793.4181,2024.5291 c -2.58458,-4.457 -47.22378,-141.3409 -99.19825,-304.1864 -51.97447,-162.8455 -96.69055,-301.8257 -99.36906,-308.845 -3.6121,-9.4656 13.77911,-12.7621 67.32979,-12.7621 h 72.1998 l 63.53404,199.0901 c 34.9437,109.4996 66.522,199.0901 70.17398,199.0901 3.65197,0 38.00182,-89.7833 76.33305,-199.5184 l 69.69295,-199.5185 67.1953,2.9808 67.1953,2.9808 67.5554,191.7282 c 64.3553,182.6457 75.9382,210.2345 84.1766,200.4963 1.9794,-2.3397 31.2139,-91.5474 64.9657,-198.2393 l 61.3668,-193.9852 71.9175,-2.9806 71.9175,-2.9806 -25.1718,79.5537 c -13.8444,43.7546 -59.6506,186.3732 -101.7913,316.9304 l -76.6194,237.3766 -68.2737,-0.1095 -68.2736,-0.1095 -70.5854,-204.0855 c -38.822,-112.2469 -73.9287,-204.0854 -78.0149,-204.0854 -4.0862,0 -24.9321,49.3896 -46.3244,109.7548 -21.3922,60.3651 -53.54758,151.1043 -71.45638,201.6425 l -32.56147,91.8877 -66.60743,2.9989 c -36.63405,1.6494 -68.72205,-0.6478 -71.30662,-5.1049 z"
     id="path18" />
</svg>
